<svg width="72" height="18" viewBox="0 0 72 18" fill="none" xmlns="http://www.w3.org/2000/svg">
<path d="M14.5078 6.60156H11.0859C11.0234 6.15885 10.8958 5.76562 10.7031 5.42187C10.5104 5.07292 10.263 4.77604 9.96094 4.53125C9.65885 4.28646 9.3099 4.09896 8.91406 3.96875C8.52344 3.83854 8.09896 3.77344 7.64063 3.77344C6.8125 3.77344 6.09115 3.97917 5.47656 4.39062C4.86198 4.79687 4.38542 5.39062 4.04688 6.17188C3.70833 6.94792 3.53906 7.89062 3.53906 9C3.53906 10.1406 3.70833 11.099 4.04688 11.875C4.39063 12.651 4.86979 13.237 5.48437 13.6328C6.09896 14.0286 6.8099 14.2266 7.61719 14.2266C8.07031 14.2266 8.48958 14.1667 8.875 14.0469C9.26563 13.9271 9.61198 13.7526 9.91406 13.5234C10.2161 13.2891 10.4661 13.0052 10.6641 12.6719C10.8672 12.3385 11.0078 11.9583 11.0859 11.5312L14.5078 11.5469C14.4193 12.2812 14.1979 12.9896 13.8438 13.6719C13.4948 14.349 13.0234 14.9557 12.4297 15.4922C11.8411 16.0234 11.138 16.4453 10.3203 16.7578C9.50781 17.0651 8.58854 17.2187 7.5625 17.2187C6.13542 17.2187 4.85938 16.8958 3.73438 16.25C2.61458 15.6042 1.72917 14.6693 1.07812 13.4453C0.432292 12.2214 0.109375 10.7396 0.109375 9C0.109375 7.25521 0.4375 5.77083 1.09375 4.54688C1.75 3.32292 2.64063 2.39062 3.76563 1.75C4.89063 1.10417 6.15625 0.781249 7.5625 0.781249C8.48958 0.781249 9.34896 0.911458 10.1406 1.17187C10.9375 1.43229 11.6432 1.8125 12.2578 2.3125C12.8724 2.80729 13.3724 3.41406 13.7578 4.13281C14.1484 4.85156 14.3984 5.67448 14.5078 6.60156ZM16.4936 17V1H19.8764V7.60156H26.7436V1H30.1186V17H26.7436V10.3906H19.8764V17H16.4936ZM32.4677 17V1H43.2489V3.78906H35.8505V7.60156H42.6942V10.3906H35.8505V14.2109H43.2802V17H32.4677ZM54.178 5.60156C54.1155 4.97135 53.8473 4.48177 53.3734 4.13281C52.8994 3.78385 52.2562 3.60937 51.4437 3.60937C50.8916 3.60937 50.4254 3.6875 50.0452 3.84375C49.665 3.99479 49.3734 4.20573 49.1702 4.47656C48.9723 4.7474 48.8734 5.05469 48.8734 5.39844C48.8629 5.6849 48.9228 5.9349 49.053 6.14844C49.1885 6.36198 49.3734 6.54687 49.6077 6.70312C49.8421 6.85417 50.1129 6.98698 50.4202 7.10156C50.7275 7.21094 51.0557 7.30469 51.4046 7.38281L52.8421 7.72656C53.54 7.88281 54.1807 8.09115 54.764 8.35156C55.3473 8.61198 55.8525 8.93229 56.2796 9.3125C56.7067 9.69271 57.0374 10.1406 57.2718 10.6562C57.5114 11.1719 57.6338 11.763 57.639 12.4297C57.6338 13.4089 57.3838 14.2578 56.889 14.9766C56.3994 15.6901 55.6911 16.2448 54.764 16.6406C53.8421 17.0312 52.7301 17.2266 51.428 17.2266C50.1364 17.2266 49.0114 17.0286 48.053 16.6328C47.0999 16.237 46.3551 15.651 45.8187 14.875C45.2874 14.0937 45.0088 13.1276 44.9827 11.9766H48.2562C48.2926 12.513 48.4463 12.9609 48.7171 13.3203C48.9932 13.6745 49.3603 13.9427 49.8187 14.125C50.2822 14.3021 50.8057 14.3906 51.389 14.3906C51.9619 14.3906 52.4593 14.3073 52.8812 14.1406C53.3083 13.974 53.639 13.7422 53.8734 13.4453C54.1077 13.1484 54.2249 12.8073 54.2249 12.4219C54.2249 12.0625 54.1182 11.7604 53.9046 11.5156C53.6963 11.2708 53.389 11.0625 52.9827 10.8906C52.5817 10.7187 52.0895 10.5625 51.5062 10.4219L49.764 9.98437C48.415 9.65625 47.3499 9.14323 46.5687 8.44531C45.7874 7.7474 45.3994 6.80729 45.4046 5.625C45.3994 4.65625 45.6572 3.8099 46.178 3.08594C46.7041 2.36198 47.4254 1.79687 48.3421 1.39062C49.2588 0.984374 50.3004 0.781249 51.4671 0.781249C52.6546 0.781249 53.6911 0.984374 54.5765 1.39062C55.4671 1.79687 56.1598 2.36198 56.6546 3.08594C57.1494 3.8099 57.4046 4.64844 57.4202 5.60156H54.178ZM68.1541 5.60156C68.0916 4.97135 67.8233 4.48177 67.3494 4.13281C66.8754 3.78385 66.2322 3.60937 65.4197 3.60937C64.8676 3.60937 64.4015 3.6875 64.0213 3.84375C63.641 3.99479 63.3494 4.20573 63.1463 4.47656C62.9483 4.7474 62.8494 5.05469 62.8494 5.39844C62.839 5.6849 62.8989 5.9349 63.0291 6.14844C63.1645 6.36198 63.3494 6.54687 63.5838 6.70312C63.8181 6.85417 64.089 6.98698 64.3963 7.10156C64.7035 7.21094 65.0317 7.30469 65.3806 7.38281L66.8181 7.72656C67.516 7.88281 68.1567 8.09115 68.74 8.35156C69.3233 8.61198 69.8285 8.93229 70.2556 9.3125C70.6827 9.69271 71.0134 10.1406 71.2478 10.6562C71.4874 11.1719 71.6098 11.763 71.615 12.4297C71.6098 13.4089 71.3598 14.2578 70.865 14.9766C70.3754 15.6901 69.6671 16.2448 68.74 16.6406C67.8181 17.0312 66.7061 17.2266 65.4041 17.2266C64.1124 17.2266 62.9874 17.0286 62.0291 16.6328C61.0759 16.237 60.3311 15.651 59.7947 14.875C59.2634 14.0937 58.9848 13.1276 58.9588 11.9766H62.2322C62.2686 12.513 62.4223 12.9609 62.6931 13.3203C62.9692 13.6745 63.3364 13.9427 63.7947 14.125C64.2582 14.3021 64.7817 14.3906 65.365 14.3906C65.9379 14.3906 66.4353 14.3073 66.8572 14.1406C67.2843 13.974 67.615 13.7422 67.8494 13.4453C68.0838 13.1484 68.2009 12.8073 68.2009 12.4219C68.2009 12.0625 68.0942 11.7604 67.8806 11.5156C67.6723 11.2708 67.365 11.0625 66.9588 10.8906C66.5577 10.7187 66.0655 10.5625 65.4822 10.4219L63.74 9.98437C62.391 9.65625 61.3259 9.14323 60.5447 8.44531C59.7634 7.7474 59.3754 6.80729 59.3806 5.625C59.3754 4.65625 59.6332 3.8099 60.1541 3.08594C60.6801 2.36198 61.4015 1.79687 62.3181 1.39062C63.2348 0.984374 64.2765 0.781249 65.4431 0.781249C66.6306 0.781249 67.6671 0.984374 68.5525 1.39062C69.4431 1.79687 70.1358 2.36198 70.6306 3.08594C71.1254 3.8099 71.3806 4.64844 71.3963 5.60156H68.1541Z" fill="white"/>
</svg>
